<?xml version="1.0" encoding="UTF-8"?>
<svg id="Calque_2" data-name="Calque 2" xmlns="http://www.w3.org/2000/svg" viewBox="0 0 500.69 500.69">
  <defs>
    <style>
      .cls-1 {
        fill: #fff;
      }

      .cls-2 {
        fill: #0f0a00;
      }

      .cls-2, .cls-3 {
        stroke: #1d1d1b;
        stroke-miterlimit: 10;
      }

      .cls-3 {
        fill: #1d1d1b;
      }
    </style>
  </defs>
  <path class="cls-3" d="M214.23,360.51c3.17-2.4,2.11-6.21,4.53-15.73,1.55-6.08,2.33-9.13,3.81-10.86,5.45-6.36,15.64-.25,35.45-.71,17.83-.41,27.97-5.78,32.15-.29,2.9,3.81-.08,8.91,3.95,12.29,3.21,2.69,8.9,2.65,10.6.4.64-.84.39-1.56.3-6.25-.07-3.99-.11-5.98.2-6.65,2.19-4.66,16.03-6.06,21.8.2,1.86,2.01,2.49,4.86,3.75,10.55,1.88,8.49.72,11.26,3.25,13.55,2.94,2.66,8.68,2.7,10.9.2,1.62-1.82.29-3.95-.25-11.85-.47-6.92-.7-10.38,1-12.7,2.8-3.81,7.34-2.15,10.55-6.35,1.73-2.27,1.93-4.74,2.1-7.7.9-15.93,1.35-23.89.23-31.63-.82-5.69-1.76-9.1.27-12.57,1.14-1.95,2.56-2.79,5.33-6.97,1.45-2.18,2.27-3.42,2.97-5.13,2.13-5.25,1.14-10.28.75-11.9-1.36-5.7-4.83-9.08-6.8-11-1.59-1.55-6.73-6.44-14.45-7.5-7.88-1.09-12.21,2.66-14.05.51-1.31-1.53.14-4.26,4.85-15.01,5.15-11.74,6.77-16.1,5.75-21.31-.34-1.76-.91-4.48-3.15-6.29-2.57-2.07-5.71-1.63-12.7-.85-15.09,1.68-16.94,1.48-18.2.15-2.43-2.56.44-6.1-1.8-11.5-2.02-4.86-6.53-7.26-9.05-8.6-12.32-6.54-33.32-1.56-54.95-1.3-26.36.32-44.4-6.48-57.05,1.3-7.09,4.36-12,10.8-12,10.8-1.91,2.5-4.61,6.05-6,11.2-1.34,4.98-.68,8.61.65,17,.71,4.48,1.84,11.76,3.2,21.3-2.37.05-5.26.42-8.35,1.55-3.8,1.39-6.47,3.41-8.05,4.8-1.13,1.1-2.73,2.92-4,5.55-1.38,2.87-1.78,5.47-1.9,7.1-.24,1.39-.44,3.43-.1,5.85.32,2.24.98,4.02,1.55,5.25.69,1.67,2.18,4.67,5.25,7.3,2.43,2.09,4.54,3.14,5.95,3.5.23,15.1.47,30.2.7,45.3.25.92.77,2.34,1.85,3.8,1.21,1.64,2.59,2.6,3.45,3.1.46.22.92.43,1.38.65.02,2.52-.08,6.4-.68,11.1-.91,7.07-2.17,9.69-.52,11.68,2.06,2.48,7.51,2.62,10.37.27,1.66-1.37,2.41-4.61,3.85-11.05,1.16-5.19,1.16-6.56,2.49-7.37,1.22-.75,2.38-.3,8.99,1.75,7.15,2.22,7.77,2.32,8.57,3.27,1.6,1.9,1.26,4.04.63,11.4-1.13,13.25-.76,15.06.5,16.3,2.32,2.28,7.31,2.26,10.17.1Z"/>
  <path class="cls-1" d="M186.9,252.25c-1.1,4.18-.25,7.61,0,8.53,2.07,7.59,9.04,10.84,10.13,11.33l2.4,4.93c2.04,10.39,1.4,18.4.4,23.87-1.3,7.14-3.88,13.57-.4,18.67,1.79,2.62,4.59,4.03,5.6,4.53.57.28,7.34,3.61,10.8,1.47,3.43-2.13,1.85-8.56-.6-29.27-3.2-27.05-2.19-30.36-1.2-32.62.8-1.82,2.71-5.57,1.8-9.98-.9-4.36-4.17-7.42-5.07-8.27-1.04-.97-2.94-2.72-6-3.73-1.11-.37-5.13-1.7-9.47,0-6.27,2.46-8.06,9.23-8.4,10.53Z"/>
  <path class="cls-1" d="M223.7,272.38c-1.55,1.4.1,4.43.43,11.2.37,7.55-1.45,8.81-.43,10.8,3.32,6.53,23.37-5.83,50.13-2.97,4.95.53,37.68,4.53,47.6,2.97,1.73-.27,3.68-.86,4.53-2.4,1.17-2.12-1.01-3.7-.83-7.97.16-3.79,2-5.49.83-7.5-.7-1.2-1.97-1.66-2.53-1.87-7.64-2.77-51.12.87-59.2,1.47-15.72,1.16-23.57,1.74-30.53-1.33-3.23-1.43-8.05-4.16-10-2.4Z"/>
  <path class="cls-1" d="M223.7,303.31c-4.49,5.26-4.74,15.44,0,21.2,8.82,10.73,26.14-4.54,62.33-1.4,16.07,1.39,46.24,7.31,59.2.4,2.67-1.42,3.99-3.06,4.4-3.6,3.78-4.96,2-10.92.2-23.6-2.96-20.79-1.01-24.57.8-26.6,2.71-3.03,5.23-2.29,7.4-6.02,3.33-5.72.52-12.87,0-14.18-1.05-2.67-2.44-6.2-6-7.8-4.79-2.15-9.94.77-11.4,1.6-2.91,1.65-4.67,3.83-5.6,5.2-.25,1.32-.63,3.5-1,6.2-.64,4.71-2.34,19.17-.4,43.2.48,5.91.67,6.13.2,7-3.52,6.53-20.33,4.86-74.83-3.2-19.89-2.94-30.05-4.55-35.3,1.6Z"/>
  <path class="cls-1" d="M238.37,198.51c-5.27,5.03-2.42,9.29-8.67,34.67-4.61,18.71-7.32,21.09-5.07,24.93,4.88,8.33,20.22,1.52,58.13,2.8,22.93.78,29.7,3.69,36.27-2.13,4.3-3.81,3.89-7.28,10.13-35.47,4.3-19.38,5.4-21.85,3.33-24.8-5.22-7.45-18.56-.74-47.87-.8-29.08-.06-38.4-6.7-46.27.8Z"/>
  <path class="cls-1" d="M197.17,176.11c-3.84.38-6.19,6.21-6.8,7.73-2.81,6.98.76,12.29,2.4,25.06,1.88,14.6-1.3,19.2,2.8,22.54,4.41,3.59,10.15-.02,17.07,5.07,3.78,2.78,4.22,5.44,5.87,5.2,3.01-.45,3.61-9.62,6.13-26.4,3.16-21.02,4.75-23.49,6.67-25.2,3.86-3.45,8.6-3.49,28-1.6,30.74,2.99,40.26,5.16,42.53,1.07,1.87-3.37-1.81-9.82-6.4-13.47-7.56-6.01-14.65-2.11-37.95-.43-22.71,1.64-55.56.8-59.52.43-.1,0-.4-.04-.8,0Z"/>
  <path class="cls-2" d="M245.33,225.51c1.09-2.64,3.86-2.77,8.25-4.95,6.88-3.42,8.13-7.07,10.85-6.25,2.05.62,3.82,3.45,3.3,5.6-1.19,4.88-13.74,4.28-14.1,7.6-.33,3.04,10.04,4.83,10.2,9.7.07,2.02-1.65,4.2-3.4,4.52-2.28.42-3.03-2.61-8.5-6.47-3.59-2.53-5.68-2.93-6.6-5.45-.14-.38-.81-2.34,0-4.3Z"/>
  <path class="cls-2" d="M267.23,243.41c-1.26-5.16,3.82-8.03,7.55-16.81,1.71-4.02,5.66-15.25,7.55-16.59.34-.24,1.32-.93,2.1-.6.14.06.24.13.3.18.96.51,2.21,1.37,2.9,2.82,1.56,3.23-1.12,6.31-4.5,13.45-3.04,6.42-5.92,14.59-10.4,19.45-.72.78-1.91,1.95-3.1,1.7-1.6-.33-2.26-3.05-2.4-3.6Z"/>
  <path class="cls-2" d="M289.23,236.01c-.21.01-1.12.1-1.6.8-.48.71-.2,1.59,0,2.2.38,1.17,1.23,2.27,2,2.72,1.98,1.15,4.54-1.28,11.1-4.92,5.54-3.07,8.16-3.8,9.6-6.8.28-.58,1.25-2.61.4-4-.53-.86-1.52-1.1-2.13-1.29-.93-.28-4.02-2.73-10.17-7.61-2.14-1.7-2.95-2.36-4.1-2.2-1.57.21-3.08,1.84-3,3.3.07,1.37,1.52,2.08,4.15,3.9,4.48,3.1,6.72,4.65,6.85,6.1.15,1.62-2.2,4.09-13.1,7.8Z"/>
</svg>